<svg width="14" height="14" viewBox="0 0 14 14" fill="none" xmlns="http://www.w3.org/2000/svg">
<path fill-rule="evenodd" clip-rule="evenodd" d="M1.47362 0.25C1.33187 0.25 1.2055 0.34825 1.15675 0.496L0.29125 3.12512C0.263922 3.20827 0.249998 3.29523 0.25 3.38275V4.42863C0.25 5.02 0.681625 5.5 1.21413 5.5C1.74663 5.5 2.17862 5.02 2.17862 4.42863C2.17862 5.02037 2.61025 5.5 3.14275 5.5C3.67525 5.5 4.10725 5.02 4.10725 4.42863C4.10725 5.02037 4.53888 5.5 5.07137 5.5C5.60388 5.5 6.03513 5.02075 6.03588 4.42938C6.03588 5.02075 6.4675 5.5 7 5.5C7.5325 5.5 7.96412 5.02 7.96412 4.42863C7.96412 5.02037 8.39612 5.5 8.92863 5.5C9.46112 5.5 9.89237 5.02075 9.89275 4.42938C9.89313 5.02075 10.3247 5.5 10.8573 5.5C11.3897 5.5 11.8214 5.02 11.8214 4.42863C11.8214 5.02037 12.253 5.5 12.7859 5.5C13.3184 5.5 13.75 5.02 13.75 4.42863V3.38275C13.75 3.29523 13.7361 3.20827 13.7087 3.12512L12.8433 0.496375C12.7945 0.34825 12.6681 0.25 12.5264 0.25H1.47362Z" fill="#3357D0" fill-opacity="0.1"/>
<path fill-rule="evenodd" clip-rule="evenodd" d="M1.75 5.96125V8.875H0.8125C0.762772 8.875 0.715081 8.89475 0.679918 8.92992C0.644754 8.96508 0.625 9.01277 0.625 9.0625V9.4375C0.625 9.48723 0.644754 9.53492 0.679918 9.57008C0.715081 9.60525 0.762772 9.625 0.8125 9.625H13.1875C13.2372 9.625 13.2849 9.60525 13.3201 9.57008C13.3552 9.53492 13.375 9.48723 13.375 9.4375V9.0625C13.375 9.01277 13.3552 8.96508 13.3201 8.92992C13.2849 8.89475 13.2372 8.875 13.1875 8.875H12.25V5.96125C12.093 5.8988 11.9479 5.8096 11.8214 5.69763C11.724 5.78321 11.616 5.85581 11.5 5.91363V8.875H2.5V5.91363C2.38399 5.85581 2.27597 5.78321 2.17862 5.69763C2.05262 5.80825 1.90863 5.89825 1.75 5.96125ZM11.5 5.22738C11.5317 5.19563 11.5618 5.1615 11.59 5.125H11.5V5.22738ZM12.0527 5.125C12.1096 5.1983 12.1759 5.26375 12.25 5.31962V5.125H12.0527ZM1.75 5.31962C1.82468 5.26447 1.8911 5.19894 1.94725 5.125H1.75V5.31962ZM2.41 5.125H2.5V5.22738C2.46796 5.1951 2.4379 5.16091 2.41 5.125ZM1.1875 10.375C1.13777 10.375 1.09008 10.3948 1.05492 10.4299C1.01975 10.4651 1 10.5128 1 10.5625V13.375C1 13.4745 1.03951 13.5698 1.10984 13.6402C1.18016 13.7105 1.27554 13.75 1.375 13.75H12.625C12.7245 13.75 12.8198 13.7105 12.8902 13.6402C12.9605 13.5698 13 13.4745 13 13.375V10.5625C13 10.5128 12.9802 10.4651 12.9451 10.4299C12.9099 10.3948 12.8622 10.375 12.8125 10.375H1.1875Z" fill="#3357D0" fill-opacity="0.1"/>
<path d="M3.25 7.9375C3.25 7.88777 3.26975 7.84008 3.30492 7.80492C3.34008 7.76975 3.38777 7.75 3.4375 7.75H4.5625C4.61223 7.75 4.65992 7.76975 4.69508 7.80492C4.73025 7.84008 4.75 7.88777 4.75 7.9375V8.6875C4.75 8.73723 4.73025 8.78492 4.69508 8.82008C4.65992 8.85525 4.61223 8.875 4.5625 8.875H3.4375C3.38777 8.875 3.34008 8.85525 3.30492 8.82008C3.26975 8.78492 3.25 8.73723 3.25 8.6875V7.9375Z" fill="#3357D0" fill-opacity="0.1"/>
<path d="M4 8.3125C4 8.26277 4.01975 8.21508 4.05492 8.17992C4.09008 8.14475 4.13777 8.125 4.1875 8.125H5.3125C5.36223 8.125 5.40992 8.14475 5.44508 8.17992C5.48025 8.21508 5.5 8.26277 5.5 8.3125V8.6875C5.5 8.73723 5.48025 8.78492 5.44508 8.82008C5.40992 8.85525 5.36223 8.875 5.3125 8.875H4.1875C4.13777 8.875 4.09008 8.85525 4.05492 8.82008C4.01975 8.78492 4 8.73723 4 8.6875V8.3125ZM7 8.3125C7 8.46168 6.94074 8.60476 6.83525 8.71025C6.72976 8.81574 6.58668 8.875 6.4375 8.875C6.28832 8.875 6.14524 8.81574 6.03975 8.71025C5.93426 8.60476 5.875 8.46168 5.875 8.3125C5.875 8.16332 5.93426 8.02024 6.03975 7.91475C6.14524 7.80926 6.28832 7.75 6.4375 7.75C6.58668 7.75 6.72976 7.80926 6.83525 7.91475C6.94074 8.02024 7 8.16332 7 8.3125Z" fill="#3357D0" fill-opacity="0.1"/>
</svg>
